<?xml version="1.0" encoding="UTF-8" standalone="no"?>
<!-- Created with Inkscape (http://www.inkscape.org/) -->

<svg
   xmlns:dc="http://purl.org/dc/elements/1.1/"
   xmlns:cc="http://creativecommons.org/ns#"
   xmlns:rdf="http://www.w3.org/1999/02/22-rdf-syntax-ns#"
   xmlns:svg="http://www.w3.org/2000/svg"
   xmlns="http://www.w3.org/2000/svg"
   xmlns:xlink="http://www.w3.org/1999/xlink"
   xmlns:sodipodi="http://sodipodi.sourceforge.net/DTD/sodipodi-0.dtd"
   xmlns:inkscape="http://www.inkscape.org/namespaces/inkscape"
   width="920"
   height="680"
   viewBox="0 0 243.41666 179.91666"
   version="1.1"
   id="svg8"
   inkscape:version="0.92.4 5da689c313, 2019-01-14"
   sodipodi:docname="large-promo.svg"
   inkscape:export-filename="/home/sam/tmp/large.png"
   inkscape:export-xdpi="96"
   inkscape:export-ydpi="96">
  <defs
     id="defs2">
    <linearGradient
       inkscape:collect="always"
       id="linearGradient4652">
      <stop
         style="stop-color:#ba64e0;stop-opacity:1"
         offset="0"
         id="stop4648" />
      <stop
         style="stop-color:#cb8ee8;stop-opacity:1"
         offset="1"
         id="stop4650" />
    </linearGradient>
    <linearGradient
       inkscape:collect="always"
       xlink:href="#linearGradient4652"
       id="linearGradient4654"
       x1="111.96241"
       y1="169.74171"
       x2="111.96241"
       y2="49.923264"
       gradientUnits="userSpaceOnUse" />
    <linearGradient
       inkscape:collect="always"
       xlink:href="#linearGradient4728-1"
       id="linearGradient4730-3"
       x1="240.37982"
       y1="174.65541"
       x2="240.37982"
       y2="24.220881"
       gradientUnits="userSpaceOnUse"
       gradientTransform="matrix(0.65714384,0,0,1.2142877,15.028143,-37.183552)" />
    <linearGradient
       inkscape:collect="always"
       id="linearGradient4728-1">
      <stop
         style="stop-color:#330536;stop-opacity:1"
         offset="0"
         id="stop4724-4" />
      <stop
         style="stop-color:#690a70;stop-opacity:1"
         offset="1"
         id="stop4726-9" />
    </linearGradient>
    <linearGradient
       inkscape:collect="always"
       xlink:href="#linear-gradient"
       id="linearGradient868"
       gradientUnits="userSpaceOnUse"
       x1="54.459999"
       y1="17.790001"
       x2="39.75"
       y2="32.959999" />
    <linearGradient
       id="linear-gradient"
       x1="54.459999"
       y1="17.790001"
       x2="39.75"
       y2="32.959999"
       gradientUnits="userSpaceOnUse">
      <stop
         offset="0.18"
         stop-color="#fff"
         stop-opacity="0.4"
         id="stop4" />
      <stop
         offset="1"
         stop-color="#fff"
         id="stop6" />
    </linearGradient>
    <linearGradient
       id="linear-gradient-2"
       x1="37.830002"
       y1="35.619999"
       x2="20.82"
       y2="52.16"
       xlink:href="#linear-gradient" />
  </defs>
  <sodipodi:namedview
     id="base"
     pagecolor="#888888"
     bordercolor="#666666"
     borderopacity="1.0"
     inkscape:pageopacity="0"
     inkscape:pageshadow="2"
     inkscape:zoom="0.49497475"
     inkscape:cx="671.64518"
     inkscape:cy="826.12381"
     inkscape:document-units="mm"
     inkscape:current-layer="layer1"
     showgrid="false"
     inkscape:window-width="2556"
     inkscape:window-height="1401"
     inkscape:window-x="0"
     inkscape:window-y="37"
     inkscape:window-maximized="0"
     fit-margin-top="0"
     fit-margin-left="0"
     fit-margin-right="0"
     fit-margin-bottom="0"
     units="px" />
  <metadata
     id="metadata5">
    <rdf:RDF>
      <cc:Work
         rdf:about="">
        <dc:format>image/svg+xml</dc:format>
        <dc:type
           rdf:resource="http://purl.org/dc/dcmitype/StillImage" />
        <dc:title></dc:title>
      </cc:Work>
    </rdf:RDF>
  </metadata>
  <g
     inkscape:label="Layer 1"
     inkscape:groupmode="layer"
     id="layer1"
     transform="translate(-43.832203,6.39519)">
    <rect
       style="fill:url(#linearGradient4730-3);fill-opacity:1;stroke:none;stroke-width:1.47571015;stroke-miterlimit:4;stroke-dasharray:none;stroke-opacity:1"
       id="rect4722-2"
       width="243.41701"
       height="179.91701"
       x="43.832203"
       y="-6.3955307" />
    <g
       id="g3573"
       transform="matrix(2.0051993,0,0,2.0051993,-37.967368,-196.70541)">
      <g
         id="g2524"
         transform="matrix(7.9469549,0,0,7.9469549,-260.22186,-1222.3754)">
        <path
           inkscape:connector-curvature="0"
           id="path1541"
           d="m 44.519434,169.57878 a 1.826468,1.826468 0 0 0 -0.554939,0.0889 v 3.47703 a 1.826468,1.826468 0 0 0 0.554939,0.0867 1.826468,1.826468 0 0 0 1.826311,-1.82631 1.826468,1.826468 0 0 0 -1.826311,-1.82631 z"
           style="fill:#ffffff;fill-opacity:0.22897195;stroke:none;stroke-width:0.26458332;stroke-miterlimit:4;stroke-dasharray:none;stroke-opacity:1" />
        <rect
           y="170.08188"
           x="44.36137"
           height="1.8520833"
           width="0.52916664"
           id="rect1558"
           style="fill:#fafafa;fill-opacity:1;stroke:none;stroke-width:1.689587;stroke-miterlimit:4;stroke-dasharray:none;stroke-opacity:1" />
        <rect
           y="172.19856"
           x="44.36137"
           height="0.52916664"
           width="0.52916664"
           id="rect1558-6"
           style="fill:#fafafa;fill-opacity:1;stroke:none;stroke-width:0.90312225;stroke-miterlimit:4;stroke-dasharray:none;stroke-opacity:1" />
        <rect
           y="170.87564"
           x="45.419704"
           height="1.0583333"
           width="1.5875"
           id="rect1608"
           style="fill:#ffffff;fill-opacity:1;stroke:none;stroke-width:0.35095459;stroke-miterlimit:4;stroke-dasharray:none;stroke-opacity:1" />
        <path
           inkscape:connector-curvature="0"
           id="path1612"
           d="m 46.74262,172.33085 v -1.85208 l 1.058333,0.92605 z"
           inkscape:transform-center-y="8.945269e-06"
           inkscape:transform-center-x="-0.17639203"
           style="fill:#ffffff;fill-opacity:1;stroke:none;stroke-width:0.34058812;stroke-miterlimit:4;stroke-dasharray:none;stroke-opacity:1" />
        <path
           inkscape:connector-curvature="0"
           id="path1541-0"
           d="m 44.519434,169.57878 a 1.826468,1.826468 0 0 0 -0.554939,0.0889 v 3.47703 a 1.826468,1.826468 0 0 0 0.554939,0.0867 1.826468,1.826468 0 0 0 1.826311,-1.82631 1.826468,1.826468 0 0 0 -1.826311,-1.82631 z"
           style="fill:none;fill-opacity:0.22897195;stroke:#222222;stroke-width:0.26458332;stroke-miterlimit:4;stroke-dasharray:none;stroke-opacity:0" />
        <path
           inkscape:connector-curvature="0"
           id="path1541-0-9"
           d="m 44.519434,169.57878 a 1.826468,1.826468 0 0 0 -0.554939,0.0889 v 3.47703 a 1.826468,1.826468 0 0 0 0.554939,0.0867 1.826468,1.826468 0 0 0 1.826311,-1.82631 1.826468,1.826468 0 0 0 -1.826311,-1.82631 z"
           style="fill:none;fill-opacity:0.22897195;stroke:#222222;stroke-width:0.26458332;stroke-miterlimit:4;stroke-dasharray:none;stroke-opacity:0.0140187" />
        <path
           inkscape:connector-curvature="0"
           id="path1541-0-9-3"
           transform="matrix(0.26458333,0,0,0.26458333,43.832203,169.28814)"
           d="M 2.5957031,0.597656 C 1.8317737,0.60136 1.0724458,0.72194439 0.34570312,0.957031 L 0,1.0683594 V 14.939453 l 0.34765625,0.111328 C 1.0748714,15.283222 1.834203,15.401966 2.5976562,15.402344 4.5608147,15.402193 6.4438637,14.62252 7.8320312,13.234375 8.4814799,12.584918 8.9917496,11.82366 9.3574219,11 H 8.2519531 C 7.95644,11.556711 7.5789035,12.071479 7.125,12.525391 5.9241685,13.726184 4.2958698,14.402117 2.5976562,14.402344 2.0580304,14.402004 1.5215332,14.332195 1,14.197266 V 1.8066406 C 1.5211402,1.6698217 2.0578641,1.5979708 2.5976562,1.5957031 4.2959265,1.5958921 5.9241345,2.2698338 7.125,3.4707031 7.5795359,3.9252404 7.958213,4.4423987 8.2539062,5 H 9.359375 C 8.9936518,4.1755807 8.4819958,3.4155807 7.8320312,2.765625 6.5622045,1.4957793 4.8782333,0.73392377 3.0976562,0.61328125 2.9684236,0.60681772 2.7439469,0.59650243 2.5957031,0.597656 Z"
           style="color:#000000;font-style:normal;font-variant:normal;font-weight:normal;font-stretch:normal;font-size:medium;line-height:normal;font-family:sans-serif;font-variant-ligatures:normal;font-variant-position:normal;font-variant-caps:normal;font-variant-numeric:normal;font-variant-alternates:normal;font-feature-settings:normal;text-indent:0;text-align:start;text-decoration:none;text-decoration-line:none;text-decoration-style:solid;text-decoration-color:#000000;letter-spacing:normal;word-spacing:normal;text-transform:none;writing-mode:lr-tb;direction:ltr;text-orientation:mixed;dominant-baseline:auto;baseline-shift:baseline;text-anchor:start;white-space:normal;shape-padding:0;clip-rule:nonzero;display:inline;overflow:visible;visibility:visible;opacity:1;isolation:auto;mix-blend-mode:normal;color-interpolation:sRGB;color-interpolation-filters:linearRGB;solid-color:#000000;solid-opacity:1;vector-effect:none;fill:#ffffff;fill-opacity:1;fill-rule:nonzero;stroke:none;stroke-width:1.0000633;stroke-linecap:butt;stroke-linejoin:miter;stroke-miterlimit:4;stroke-dasharray:none;stroke-dashoffset:0;stroke-opacity:1;color-rendering:auto;image-rendering:auto;shape-rendering:auto;text-rendering:auto;enable-background:accumulate"
           sodipodi:nodetypes="ccccccccccccccsccccc" />
        <path
           inkscape:connector-curvature="0"
           id="path1541-2"
           d="m 44.519434,169.57878 a 1.826468,1.826468 0 0 0 -0.554939,0.0889 v 3.47703 a 1.826468,1.826468 0 0 0 0.554939,0.0867 1.826468,1.826468 0 0 0 1.826311,-1.82631 1.826468,1.826468 0 0 0 -1.826311,-1.82631 z"
           style="fill:none;fill-opacity:0.22897195;stroke:#ffffff;stroke-width:0.079375;stroke-miterlimit:4;stroke-dasharray:none;stroke-opacity:1" />
      </g>
      <g
         id="g3789"
         transform="translate(0,-0.7241162)">
        <g
           id="Layer_2-8"
           data-name="Layer 2"
           transform="matrix(0.3005771,0,0,0.3005771,128.36345,122.36082)">
          <g
             id="White-7">
            <path
               class="cls-1"
               d="M 69.82,0 H 35.23 a 15.61,15.61 0 0 0 15.61,15.61 h 6.37 v 6.15 a 15.61,15.61 0 0 0 15.61,15.6 V 3 a 3,3 0 0 0 -3,-3 z"
               id="path14-9"
               inkscape:connector-curvature="0"
               style="fill:#ffffff" />
            <path
               class="cls-2"
               d="M 52.2,17.73 H 17.62 a 15.61,15.61 0 0 0 15.6,15.6 h 6.37 v 6.15 A 15.61,15.61 0 0 0 55.2,55.09 V 20.73 a 3,3 0 0 0 -3,-3 z"
               id="path16-2"
               style="fill:url(#linearGradient868)"
               inkscape:connector-curvature="0" />
            <path
               class="cls-3"
               d="M 34.58,35.46 H 0 a 15.61,15.61 0 0 0 15.61,15.6 H 22 v 6.15 A 15.61,15.61 0 0 0 37.58,72.82 V 38.46 a 3,3 0 0 0 -3,-3 z"
               id="path18-0"
               style="fill:url(#linear-gradient-2)"
               inkscape:connector-curvature="0" />
          </g>
        </g>
        <g
           transform="matrix(0.18140229,0,0,0.18140229,135.03424,169.326)"
           data-name="Layer 2"
           id="Layer_2">
          <g
             transform="translate(-128.69344,-125.1579)"
             id="White">
            <path
               style="fill:#ffffff"
               inkscape:connector-curvature="0"
               id="path20"
               d="m 109,7.5 h 8 v 40.21 c 0,10.65 -4.66,18 -15.58,18 a 28.14,28.14 0 0 1 -9.5,-1.5 v -7.7 a 22.2,22.2 0 0 0 8.18,1.5 c 6.69,0 9,-4 9,-9.77 z"
               class="cls-1" />
            <path
               style="fill:#ffffff"
               inkscape:connector-curvature="0"
               id="path22"
               d="m 131.4,4.42 a 4.94,4.94 0 0 1 5.28,5.28 5.28,5.28 0 1 1 -10.56,0 4.94,4.94 0 0 1 5.28,-5.28 z m -3.87,16.9 h 7.57 v 44 h -7.57 z"
               class="cls-1" />
            <path
               style="fill:#ffffff"
               inkscape:connector-curvature="0"
               id="path24"
               d="m 146.53,21.31 h 7.39 v 7.74 c 2.55,-5.19 7,-8.89 15.58,-8.36 v 7.39 c -9.68,-1 -15.58,1.94 -15.58,11.26 v 26 h -7.39 z"
               class="cls-1" />
            <path
               style="fill:#ffffff"
               inkscape:connector-curvature="0"
               id="path26"
               d="m 205,57.39 c -2.82,5.81 -8.1,8.8 -14.87,8.8 -11.7,0 -17.6,-9.94 -17.6,-22.88 0,-12.41 6.16,-22.88 18.48,-22.88 6.42,0 11.35,2.9 14,8.62 v -7.74 h 7.57 v 44 H 205 Z m -12.85,1.76 c 6.78,0 12.85,-4.31 12.85,-14.08 v -3.52 c 0,-9.77 -5.54,-14.08 -12,-14.08 -8.54,0 -12.94,5.63 -12.94,15.84 0,10.56 4.22,15.84 12.06,15.84 z"
               class="cls-1" />
          </g>
        </g>
      </g>
      <g
         id="g3914"
         transform="translate(0,-0.72411881)">
        <g
           transform="matrix(0.20328358,0,0,-0.20328358,-6.2682007,166.58612)"
           id="g1201">
          <g
             transform="translate(350.6088,217.5547)"
             id="g200">
            <path
               inkscape:connector-curvature="0"
               id="path202"
               style="fill:#ffffff;fill-opacity:1;fill-rule:evenodd;stroke:none"
               d="m 0,0 c -33.347,0 -60.388,-27.035 -60.388,-60.388 0,-26.68 17.303,-49.316 41.297,-57.301 3.018,-0.559 4.126,1.31 4.126,2.905 0,1.439 -0.056,6.197 -0.082,11.243 -16.8,-3.653 -20.345,7.125 -20.345,7.125 -2.747,6.979 -6.705,8.836 -6.705,8.836 -5.479,3.748 0.413,3.671 0.413,3.671 6.064,-0.426 9.257,-6.224 9.257,-6.224 5.386,-9.231 14.127,-6.562 17.573,-5.019 0.543,3.902 2.107,6.567 3.834,8.075 -13.413,1.526 -27.513,6.705 -27.513,29.844 0,6.592 2.359,11.979 6.222,16.208 -0.627,1.522 -2.694,7.664 0.586,15.982 0,0 5.071,1.622 16.61,-6.191 4.817,1.338 9.983,2.009 15.115,2.033 5.132,-0.024 10.302,-0.695 15.128,-2.033 11.526,7.813 16.59,6.191 16.59,6.191 3.287,-8.318 1.22,-14.46 0.593,-15.982 3.872,-4.229 6.214,-9.616 6.214,-16.208 0,-23.195 -14.127,-28.301 -27.574,-29.796 2.166,-1.874 4.096,-5.549 4.096,-11.183 0,-8.08 -0.069,-14.583 -0.069,-16.572 0,-1.608 1.086,-3.491 4.147,-2.898 23.982,7.994 41.263,30.622 41.263,57.294 C 60.388,-27.035 33.351,0 0,0" />
          </g>
          <g
             transform="translate(313.0932,130.8515)"
             id="g204">
            <path
               inkscape:connector-curvature="0"
               id="path206"
               style="fill:#ffffff;fill-opacity:1;fill-rule:nonzero;stroke:none"
               d="m 0,0 c -0.133,-0.301 -0.605,-0.391 -1.035,-0.184 -0.439,0.197 -0.684,0.606 -0.542,0.907 0.13,0.308 0.602,0.394 1.04,0.188 C -0.099,0.714 0.151,0.301 0,0" />
          </g>
          <g
             transform="translate(315.5395,128.123)"
             id="g208">
            <path
               inkscape:connector-curvature="0"
               id="path210"
               style="fill:#ffffff;fill-opacity:1;fill-rule:nonzero;stroke:none"
               d="M 0,0 C -0.288,-0.267 -0.852,-0.143 -1.233,0.279 -1.629,0.7 -1.702,1.264 -1.41,1.534 -1.113,1.801 -0.567,1.676 -0.172,1.255 0.224,0.829 0.301,0.27 0,0" />
          </g>
          <g
             transform="translate(317.9204,124.6455)"
             id="g212">
            <path
               inkscape:connector-curvature="0"
               id="path214"
               style="fill:#ffffff;fill-opacity:1;fill-rule:nonzero;stroke:none"
               d="M 0,0 C -0.37,-0.258 -0.976,-0.017 -1.35,0.52 -1.72,1.058 -1.72,1.702 -1.341,1.96 -0.967,2.218 -0.37,1.985 0.009,1.453 0.378,0.907 0.378,0.263 0,0" />
          </g>
          <g
             transform="translate(321.1821,121.2851)"
             id="g216">
            <path
               inkscape:connector-curvature="0"
               id="path218"
               style="fill:#ffffff;fill-opacity:1;fill-rule:nonzero;stroke:none"
               d="M 0,0 C -0.331,-0.365 -1.036,-0.267 -1.552,0.231 -2.08,0.718 -2.227,1.409 -1.896,1.774 -1.56,2.14 -0.851,2.037 -0.331,1.543 0.193,1.057 0.352,0.361 0,0" />
          </g>
          <g
             transform="translate(325.6821,119.334)"
             id="g220">
            <path
               inkscape:connector-curvature="0"
               id="path222"
               style="fill:#ffffff;fill-opacity:1;fill-rule:nonzero;stroke:none"
               d="m 0,0 c -0.147,-0.473 -0.825,-0.687 -1.509,-0.486 -0.683,0.207 -1.13,0.76 -0.992,1.238 0.142,0.477 0.824,0.7 1.513,0.485 C -0.306,1.031 0.142,0.481 0,0" />
          </g>
          <g
             transform="translate(330.6245,118.9726)"
             id="g224">
            <path
               inkscape:connector-curvature="0"
               id="path226"
               style="fill:#ffffff;fill-opacity:1;fill-rule:nonzero;stroke:none"
               d="m 0,0 c 0.017,-0.498 -0.563,-0.911 -1.281,-0.92 -0.722,-0.017 -1.307,0.387 -1.315,0.877 0,0.503 0.568,0.911 1.289,0.924 C -0.589,0.895 0,0.494 0,0" />
          </g>
          <g
             transform="translate(335.2231,119.7549)"
             id="g228">
            <path
               inkscape:connector-curvature="0"
               id="path230"
               style="fill:#ffffff;fill-opacity:1;fill-rule:nonzero;stroke:none"
               d="m 0,0 c 0.086,-0.485 -0.413,-0.984 -1.126,-1.117 -0.701,-0.129 -1.35,0.172 -1.439,0.653 -0.087,0.498 0.42,0.997 1.121,1.126 C -0.73,0.786 -0.091,0.494 0,0" />
          </g>
        </g>
        <g
           id="g900"
           transform="matrix(0.0681652,0,0,-0.0681652,45.373338,165.12501)">
          <g
             id="g22"
             transform="translate(177.2812,151.0127)">
            <path
               d="m 0,0 h -30.267 c -0.781,0 -1.415,-0.634 -1.415,-1.415 v -14.798 c 0,-0.781 0.634,-1.417 1.415,-1.417 h 11.807 v -18.385 c 0,0 -2.651,-0.904 -9.981,-0.904 -8.647,0 -20.727,3.16 -20.727,29.724 0,26.569 12.579,30.064 24.388,30.064 10.222,0 14.626,-1.799 17.428,-2.667 0.881,-0.269 1.695,0.608 1.695,1.389 l 3.377,14.298 c 0,0.366 -0.124,0.805 -0.54,1.104 -1.138,0.813 -8.081,4.697 -25.621,4.697 -20.205,0 -40.932,-8.596 -40.932,-49.921 0,-41.327 23.73,-47.485 43.727,-47.485 16.557,0 26.601,7.075 26.601,7.075 0.414,0.229 0.459,0.808 0.459,1.073 V -1.415 C 1.414,-0.634 0.781,0 0,0"
               style="fill:#ffffff;fill-opacity:1;fill-rule:nonzero;stroke:none"
               id="path24-4"
               inkscape:connector-curvature="0" />
          </g>
          <g
             id="g26"
             transform="translate(333.2646,187.751)">
            <path
               d="m 0,0 c 0,0.788 -0.624,1.423 -1.405,1.423 h -17.042 c -0.779,0 -1.411,-0.635 -1.411,-1.423 0,-0.003 0.004,-32.934 0.004,-32.934 H -46.418 V 0 c 0,0.788 -0.627,1.423 -1.407,1.423 h -17.041 c -0.775,0 -1.407,-0.635 -1.407,-1.423 v -89.177 c 0,-0.787 0.632,-1.427 1.407,-1.427 h 17.041 c 0.78,0 1.407,0.64 1.407,1.427 v 38.145 h 26.564 c 0,0 -0.046,-38.142 -0.046,-38.145 0,-0.787 0.631,-1.427 1.412,-1.427 h 17.082 c 0.78,0 1.404,0.64 1.406,1.427 z"
               style="fill:#ffffff;fill-opacity:1;fill-rule:nonzero;stroke:none"
               id="path28"
               inkscape:connector-curvature="0" />
          </g>
          <g
             id="g30"
             transform="translate(209.4404,176.0498)">
            <path
               d="m 0,0 c 0,6.136 -4.92,11.095 -10.99,11.095 -6.064,0 -10.987,-4.959 -10.987,-11.095 0,-6.131 4.923,-11.104 10.987,-11.104 C -4.92,-11.104 0,-6.131 0,0"
               style="fill:#ffffff;fill-opacity:1;fill-rule:nonzero;stroke:none"
               id="path32"
               inkscape:connector-curvature="0" />
          </g>
          <g
             id="g34"
             transform="translate(208.2217,117.3857)">
            <path
               d="m 0,0 v 41.164 c 0,0.782 -0.63,1.421 -1.41,1.421 h -16.988 c -0.78,0 -1.477,-0.804 -1.477,-1.585 v -58.977 c 0,-1.733 1.08,-2.249 2.478,-2.249 h 15.306 c 1.679,0 2.091,0.826 2.091,2.277 z"
               style="fill:#ffffff;fill-opacity:1;fill-rule:nonzero;stroke:none"
               id="path36"
               inkscape:connector-curvature="0" />
          </g>
          <g
             id="g38"
             transform="translate(398.0322,159.8369)">
            <path
               d="m 0,0 h -16.911 c -0.776,0 -1.407,-0.64 -1.407,-1.427 v -43.725 c 0,0 -4.297,-3.144 -10.395,-3.144 -6.098,0 -7.716,2.767 -7.716,8.737 v 38.132 c 0,0.787 -0.63,1.427 -1.406,1.427 h -17.164 c -0.774,0 -1.409,-0.64 -1.409,-1.427 v -41.018 c 0,-17.736 9.884,-22.075 23.481,-22.075 11.156,0 20.15,6.164 20.15,6.164 0,0 0.427,-3.248 0.622,-3.633 0.193,-0.384 0.698,-0.773 1.244,-0.773 l 10.919,0.049 c 0.774,0 1.409,0.64 1.409,1.424 L 1.411,-1.427 C 1.411,-0.64 0.779,0 0,0"
               style="fill:#ffffff;fill-opacity:1;fill-rule:nonzero;stroke:none"
               id="path40"
               inkscape:connector-curvature="0" />
          </g>
          <g
             id="g42"
             transform="translate(437.584,111.5947)">
            <path
               d="m 0,0 c -5.866,0.179 -9.845,2.841 -9.845,2.841 v 28.24 c 0,0 3.925,2.406 8.741,2.836 6.09,0.546 11.958,-1.294 11.958,-15.821 C 10.854,2.776 8.206,-0.247 0,0 m 6.67,50.245 c -9.605,0 -16.138,-4.285 -16.138,-4.285 v 30.196 c 0,0.788 -0.63,1.423 -1.406,1.423 h -17.091 c -0.777,0 -1.408,-0.635 -1.408,-1.423 v -89.177 c 0,-0.787 0.631,-1.426 1.41,-1.426 h 11.858 c 0.534,0 0.938,0.275 1.237,0.757 0.295,0.479 0.72,4.112 0.72,4.112 0,0 6.988,-6.623 20.217,-6.623 15.532,0 24.439,7.878 24.439,35.366 0,27.488 -14.226,31.08 -23.838,31.08"
               style="fill:#ffffff;fill-opacity:1;fill-rule:nonzero;stroke:none"
               id="path44"
               inkscape:connector-curvature="0" />
          </g>
          <g
             id="g46"
             transform="translate(257.2017,159.9785)">
            <path
               d="m 0,0 h -12.784 c 0,0 -0.019,16.885 -0.019,16.889 0,0.639 -0.329,0.959 -1.069,0.959 h -17.42 c -0.677,0 -1.041,-0.298 -1.041,-0.95 V -0.554 c 0,0 -8.73,-2.107 -9.32,-2.277 -0.588,-0.171 -1.021,-0.713 -1.021,-1.359 v -10.967 c 0,-0.789 0.63,-1.426 1.409,-1.426 h 8.932 v -26.384 c 0,-19.596 13.746,-21.521 23.021,-21.521 4.239,0 9.309,1.361 10.146,1.67 0.506,0.186 0.801,0.711 0.801,1.279 l 0.014,12.064 c 0,0.787 -0.665,1.424 -1.413,1.424 -0.745,0 -2.651,-0.303 -4.613,-0.303 -6.279,0 -8.407,2.919 -8.407,6.699 0,3.776 -10e-4,25.072 -10e-4,25.072 H 0 c 0.779,0 1.411,0.637 1.411,1.426 V -1.421 C 1.411,-0.634 0.779,0 0,0"
               style="fill:#ffffff;fill-opacity:1;fill-rule:nonzero;stroke:none"
               id="path48"
               inkscape:connector-curvature="0" />
          </g>
        </g>
      </g>
    </g>
  </g>
</svg>
