<?xml version="1.0" encoding="UTF-8" standalone="no"?>
<!-- Created with Inkscape (http://www.inkscape.org/) -->

<svg
   xmlns:dc="http://purl.org/dc/elements/1.1/"
   xmlns:cc="http://creativecommons.org/ns#"
   xmlns:rdf="http://www.w3.org/1999/02/22-rdf-syntax-ns#"
   xmlns:svg="http://www.w3.org/2000/svg"
   xmlns="http://www.w3.org/2000/svg"
   xmlns:sodipodi="http://sodipodi.sourceforge.net/DTD/sodipodi-0.dtd"
   xmlns:inkscape="http://www.inkscape.org/namespaces/inkscape"
   width="128"
   height="128"
   viewBox="0 0 33.866666 33.866666"
   version="1.1"
   id="svg8"
   inkscape:version="0.92.4 5da689c313, 2019-01-14"
   sodipodi:docname="logo.svg"
   inkscape:export-filename="/home/sam/Documents/repos/github-jira-links/img/logo128.png"
   inkscape:export-xdpi="96.000008"
   inkscape:export-ydpi="96.000008">
  <defs
     id="defs2" />
  <sodipodi:namedview
     id="base"
     pagecolor="#888888"
     bordercolor="#666666"
     borderopacity="1.0"
     inkscape:pageopacity="0"
     inkscape:pageshadow="2"
     inkscape:zoom="1"
     inkscape:cx="-94.387153"
     inkscape:cy="144.70838"
     inkscape:document-units="mm"
     inkscape:current-layer="g1890"
     showgrid="false"
     inkscape:window-width="2556"
     inkscape:window-height="1401"
     inkscape:window-x="0"
     inkscape:window-y="37"
     inkscape:window-maximized="0"
     fit-margin-top="0"
     fit-margin-left="0"
     fit-margin-right="0"
     fit-margin-bottom="0"
     units="px"
     showguides="true"
     inkscape:guide-bbox="true" />
  <metadata
     id="metadata5">
    <rdf:RDF>
      <cc:Work
         rdf:about="">
        <dc:format>image/svg+xml</dc:format>
        <dc:type
           rdf:resource="http://purl.org/dc/dcmitype/StillImage" />
        <dc:title></dc:title>
      </cc:Work>
    </rdf:RDF>
  </metadata>
  <g
     inkscape:label="Layer 1"
     inkscape:groupmode="layer"
     id="layer1"
     transform="translate(-43.832203,-139.65481)">
    <g
       id="g1890"
       transform="matrix(7.9469548,0,0,7.9469548,-303.33674,-1205.5554)">
      <g
         id="g2524">
        <path
           style="fill:#222222;fill-opacity:0.22897195;stroke:none;stroke-width:0.26458332;stroke-miterlimit:4;stroke-dasharray:none;stroke-opacity:1"
           d="m 44.519434,169.57878 a 1.826468,1.826468 0 0 0 -0.554939,0.0889 v 3.47703 a 1.826468,1.826468 0 0 0 0.554939,0.0867 1.826468,1.826468 0 0 0 1.826311,-1.82631 1.826468,1.826468 0 0 0 -1.826311,-1.82631 z"
           id="path1541"
           inkscape:connector-curvature="0" />
        <rect
           style="fill:#222222;fill-opacity:1;stroke:none;stroke-width:1.689587;stroke-miterlimit:4;stroke-dasharray:none;stroke-opacity:1"
           id="rect1558"
           width="0.52916664"
           height="1.8520833"
           x="44.36137"
           y="170.08188" />
        <rect
           style="fill:#222222;fill-opacity:1;stroke:none;stroke-width:0.90312225;stroke-miterlimit:4;stroke-dasharray:none;stroke-opacity:1"
           id="rect1558-6"
           width="0.52916664"
           height="0.52916664"
           x="44.36137"
           y="172.19856" />
        <rect
           style="fill:#222222;fill-opacity:1;stroke:none;stroke-width:0.35095459;stroke-miterlimit:4;stroke-dasharray:none;stroke-opacity:1"
           id="rect1608"
           width="1.5875"
           height="1.0583333"
           x="45.419704"
           y="170.87564" />
        <path
           style="fill:#222222;fill-opacity:1;stroke:none;stroke-width:0.34058812;stroke-miterlimit:4;stroke-dasharray:none;stroke-opacity:1"
           inkscape:transform-center-x="-0.17639203"
           inkscape:transform-center-y="8.945269e-06"
           d="m 46.74262,172.33085 v -1.85208 l 1.058333,0.92605 z"
           id="path1612"
           inkscape:connector-curvature="0" />
        <path
           style="fill:none;fill-opacity:0.22897195;stroke:#222222;stroke-width:0.26458332;stroke-miterlimit:4;stroke-dasharray:none;stroke-opacity:0"
           d="m 44.519434,169.57878 a 1.826468,1.826468 0 0 0 -0.554939,0.0889 v 3.47703 a 1.826468,1.826468 0 0 0 0.554939,0.0867 1.826468,1.826468 0 0 0 1.826311,-1.82631 1.826468,1.826468 0 0 0 -1.826311,-1.82631 z"
           id="path1541-0"
           inkscape:connector-curvature="0" />
        <path
           style="fill:none;fill-opacity:0.22897195;stroke:#222222;stroke-width:0.26458332;stroke-miterlimit:4;stroke-dasharray:none;stroke-opacity:0.0140187"
           d="m 44.519434,169.57878 a 1.826468,1.826468 0 0 0 -0.554939,0.0889 v 3.47703 a 1.826468,1.826468 0 0 0 0.554939,0.0867 1.826468,1.826468 0 0 0 1.826311,-1.82631 1.826468,1.826468 0 0 0 -1.826311,-1.82631 z"
           id="path1541-0-9"
           inkscape:connector-curvature="0" />
        <path
           sodipodi:nodetypes="ccccccccccccccsccccc"
           style="color:#000000;font-style:normal;font-variant:normal;font-weight:normal;font-stretch:normal;font-size:medium;line-height:normal;font-family:sans-serif;font-variant-ligatures:normal;font-variant-position:normal;font-variant-caps:normal;font-variant-numeric:normal;font-variant-alternates:normal;font-feature-settings:normal;text-indent:0;text-align:start;text-decoration:none;text-decoration-line:none;text-decoration-style:solid;text-decoration-color:#000000;letter-spacing:normal;word-spacing:normal;text-transform:none;writing-mode:lr-tb;direction:ltr;text-orientation:mixed;dominant-baseline:auto;baseline-shift:baseline;text-anchor:start;white-space:normal;shape-padding:0;clip-rule:nonzero;display:inline;overflow:visible;visibility:visible;opacity:1;isolation:auto;mix-blend-mode:normal;color-interpolation:sRGB;color-interpolation-filters:linearRGB;solid-color:#000000;solid-opacity:1;vector-effect:none;fill:#222222;fill-opacity:1;fill-rule:nonzero;stroke:none;stroke-width:1.0000633;stroke-linecap:butt;stroke-linejoin:miter;stroke-miterlimit:4;stroke-dasharray:none;stroke-dashoffset:0;stroke-opacity:1;color-rendering:auto;image-rendering:auto;shape-rendering:auto;text-rendering:auto;enable-background:accumulate"
           d="M 2.5957031,0.597656 C 1.8317737,0.60136 1.0724458,0.72194439 0.34570312,0.957031 L 0,1.0683594 V 14.939453 l 0.34765625,0.111328 C 1.0748714,15.283222 1.834203,15.401966 2.5976562,15.402344 4.5608147,15.402193 6.4438637,14.62252 7.8320312,13.234375 8.4814799,12.584918 8.9917496,11.82366 9.3574219,11 H 8.2519531 C 7.95644,11.556711 7.5789035,12.071479 7.125,12.525391 5.9241685,13.726184 4.2958698,14.402117 2.5976562,14.402344 2.0580304,14.402004 1.5215332,14.332195 1,14.197266 V 1.8066406 C 1.5211402,1.6698217 2.0578641,1.5979708 2.5976562,1.5957031 4.2959265,1.5958921 5.9241345,2.2698338 7.125,3.4707031 7.5795359,3.9252404 7.958213,4.4423987 8.2539062,5 H 9.359375 C 8.9936518,4.1755807 8.4819958,3.4155807 7.8320312,2.765625 6.5622045,1.4957793 4.8782333,0.73392377 3.0976562,0.61328125 2.9684236,0.60681772 2.7439469,0.59650243 2.5957031,0.597656 Z"
           transform="matrix(0.26458333,0,0,0.26458333,43.832203,169.28814)"
           id="path1541-0-9-3"
           inkscape:connector-curvature="0" />
        <path
           style="fill:none;fill-opacity:0.22897195;stroke:#222222;stroke-width:0.079375;stroke-miterlimit:4;stroke-dasharray:none;stroke-opacity:1"
           d="m 44.519434,169.57878 a 1.826468,1.826468 0 0 0 -0.554939,0.0889 v 3.47703 a 1.826468,1.826468 0 0 0 0.554939,0.0867 1.826468,1.826468 0 0 0 1.826311,-1.82631 1.826468,1.826468 0 0 0 -1.826311,-1.82631 z"
           id="path1541-2"
           inkscape:connector-curvature="0" />
      </g>
    </g>
  </g>
</svg>
