<?xml version="1.0" encoding="UTF-8" standalone="no"?>
<!-- Created with Inkscape (http://www.inkscape.org/) -->

<svg
   xmlns:dc="http://purl.org/dc/elements/1.1/"
   xmlns:cc="http://creativecommons.org/ns#"
   xmlns:rdf="http://www.w3.org/1999/02/22-rdf-syntax-ns#"
   xmlns:svg="http://www.w3.org/2000/svg"
   xmlns="http://www.w3.org/2000/svg"
   xmlns:sodipodi="http://sodipodi.sourceforge.net/DTD/sodipodi-0.dtd"
   xmlns:inkscape="http://www.inkscape.org/namespaces/inkscape"
   width="16"
   height="16"
   viewBox="0 0 4.2333333 4.2333333"
   version="1.1"
   id="svg8"
   inkscape:version="0.92.4 5da689c313, 2019-01-14"
   sodipodi:docname="logo-small.svg"
   inkscape:export-filename="/home/sam/Documents/repos/github-jira-links/img/logo16.png"
   inkscape:export-xdpi="96"
   inkscape:export-ydpi="96">
  <defs
     id="defs2" />
  <sodipodi:namedview
     id="base"
     pagecolor="#888888"
     bordercolor="#666666"
     borderopacity="1.0"
     inkscape:pageopacity="0"
     inkscape:pageshadow="2"
     inkscape:zoom="1"
     inkscape:cx="-139.61002"
     inkscape:cy="-36.175605"
     inkscape:document-units="mm"
     inkscape:current-layer="layer1"
     showgrid="false"
     inkscape:window-width="1276"
     inkscape:window-height="1401"
     inkscape:window-x="1280"
     inkscape:window-y="37"
     inkscape:window-maximized="0"
     fit-margin-top="0"
     fit-margin-left="0"
     fit-margin-right="0"
     fit-margin-bottom="0"
     units="px"
     showguides="true"
     inkscape:guide-bbox="true" />
  <metadata
     id="metadata5">
    <rdf:RDF>
      <cc:Work
         rdf:about="">
        <dc:format>image/svg+xml</dc:format>
        <dc:type
           rdf:resource="http://purl.org/dc/dcmitype/StillImage" />
        <dc:title></dc:title>
      </cc:Work>
    </rdf:RDF>
  </metadata>
  <g
     inkscape:label="Layer 1"
     inkscape:groupmode="layer"
     id="layer1"
     transform="translate(-43.832203,-169.28814)">
    <path
       style="fill:#222222;fill-opacity:0.22897196;stroke:none;stroke-width:0.26458332;stroke-miterlimit:4;stroke-dasharray:none;stroke-opacity:1"
       d="m 44.519434,169.57878 a 1.826468,1.826468 0 0 0 -0.554939,0.0889 v 3.47703 a 1.826468,1.826468 0 0 0 0.554939,0.0867 1.826468,1.826468 0 0 0 1.826311,-1.82631 1.826468,1.826468 0 0 0 -1.826311,-1.82631 z"
       id="path1541"
       inkscape:connector-curvature="0" />
    <rect
       style="fill:#222222;fill-opacity:1;stroke:none;stroke-width:1.689587;stroke-miterlimit:4;stroke-dasharray:none;stroke-opacity:1"
       id="rect1558"
       width="0.52916664"
       height="1.8520833"
       x="44.36137"
       y="170.08188" />
    <rect
       style="fill:#222222;fill-opacity:1;stroke:none;stroke-width:0.90312225;stroke-miterlimit:4;stroke-dasharray:none;stroke-opacity:1"
       id="rect1558-6"
       width="0.52916664"
       height="0.52916664"
       x="44.36137"
       y="172.19856" />
    <rect
       style="fill:#222222;fill-opacity:1;stroke:none;stroke-width:0.35095459;stroke-miterlimit:4;stroke-dasharray:none;stroke-opacity:1"
       id="rect1608"
       width="1.5875"
       height="1.0583333"
       x="45.419704"
       y="170.87564" />
    <path
       style="fill:#222222;fill-opacity:1;stroke:none;stroke-width:0.34058812;stroke-miterlimit:4;stroke-dasharray:none;stroke-opacity:1"
       inkscape:transform-center-x="-0.17639203"
       inkscape:transform-center-y="8.945269e-06"
       d="m 46.74262,172.33085 v -1.85208 l 1.058333,0.92605 z"
       id="path1612"
       inkscape:connector-curvature="0" />
    <path
       style="fill:none;fill-opacity:0.22897195;stroke:#222222;stroke-width:0.26458332;stroke-miterlimit:4;stroke-dasharray:none;stroke-opacity:0"
       d="m 44.519434,169.57878 a 1.826468,1.826468 0 0 0 -0.554939,0.0889 v 3.47703 a 1.826468,1.826468 0 0 0 0.554939,0.0867 1.826468,1.826468 0 0 0 1.826311,-1.82631 1.826468,1.826468 0 0 0 -1.826311,-1.82631 z"
       id="path1541-0"
       inkscape:connector-curvature="0" />
    <path
       style="fill:none;fill-opacity:0.22897195;stroke:#222222;stroke-width:0.26458332;stroke-miterlimit:4;stroke-dasharray:none;stroke-opacity:0.01401869"
       d="m 44.519434,169.57878 a 1.826468,1.826468 0 0 0 -0.554939,0.0889 v 3.47703 a 1.826468,1.826468 0 0 0 0.554939,0.0867 1.826468,1.826468 0 0 0 1.826311,-1.82631 1.826468,1.826468 0 0 0 -1.826311,-1.82631 z"
       id="path1541-0-9"
       inkscape:connector-curvature="0" />
    <path
       style="color:#000000;font-style:normal;font-variant:normal;font-weight:normal;font-stretch:normal;font-size:medium;line-height:normal;font-family:sans-serif;font-variant-ligatures:normal;font-variant-position:normal;font-variant-caps:normal;font-variant-numeric:normal;font-variant-alternates:normal;font-feature-settings:normal;text-indent:0;text-align:start;text-decoration:none;text-decoration-line:none;text-decoration-style:solid;text-decoration-color:#000000;letter-spacing:normal;word-spacing:normal;text-transform:none;writing-mode:lr-tb;direction:ltr;text-orientation:mixed;dominant-baseline:auto;baseline-shift:baseline;text-anchor:start;white-space:normal;shape-padding:0;clip-rule:nonzero;display:inline;overflow:visible;visibility:visible;opacity:1;isolation:auto;mix-blend-mode:normal;color-interpolation:sRGB;color-interpolation-filters:linearRGB;solid-color:#000000;solid-opacity:1;vector-effect:none;fill:#222222;fill-opacity:1;fill-rule:nonzero;stroke:none;stroke-width:1.0000633;stroke-linecap:butt;stroke-linejoin:miter;stroke-miterlimit:4;stroke-dasharray:none;stroke-dashoffset:0;stroke-opacity:1;color-rendering:auto;image-rendering:auto;shape-rendering:auto;text-rendering:auto;enable-background:accumulate"
       d="M 3.0976562 0.59375 L 2.5957031 0.59765625 C 1.8317737 0.60136019 1.0724458 0.72194464 0.34570312 0.95703125 L 0 1.0683594 L 0 14.939453 L 0.34765625 15.050781 C 1.0748714 15.283222 1.834203 15.401966 2.5976562 15.402344 C 4.5608147 15.402193 6.4438637 14.62252 7.8320312 13.234375 C 8.4814799 12.584918 8.9917496 11.82366 9.3574219 11 L 8.2519531 11 C 7.95644 11.556711 7.5789035 12.071479 7.125 12.525391 C 5.9241685 13.726184 4.2958698 14.402117 2.5976562 14.402344 C 2.0580304 14.402004 1.5215332 14.332195 1 14.197266 L 1 1.8066406 C 1.5211402 1.6698217 2.0578641 1.5979708 2.5976562 1.5957031 C 4.2959265 1.5958921 5.9241345 2.2698338 7.125 3.4707031 C 7.5795359 3.9252404 7.958213 4.4423987 8.2539062 5 L 9.359375 5 C 8.9936518 4.1755807 8.4819958 3.4155807 7.8320312 2.765625 C 6.5622045 1.4957793 4.8782333 0.73392377 3.0976562 0.61328125 L 3.0976562 0.59375 z "
       transform="matrix(0.26458333,0,0,0.26458333,43.832203,169.28814)"
       id="path1541-0-9-3" />
  </g>
</svg>
